<?xml version="1.0" encoding="UTF-8" standalone="no"?>
<svg
   xmlns:dc="http://purl.org/dc/elements/1.1/"
   xmlns:cc="http://creativecommons.org/ns#"
   xmlns:rdf="http://www.w3.org/1999/02/22-rdf-syntax-ns#"
   xmlns:svg="http://www.w3.org/2000/svg"
   xmlns="http://www.w3.org/2000/svg"
   xmlns:sodipodi="http://sodipodi.sourceforge.net/DTD/sodipodi-0.dtd"
   xmlns:inkscape="http://www.inkscape.org/namespaces/inkscape"
   version="1.1"
   width="530.70001mm"
   height="224.7mm"
   viewBox="0 0 1880.4344 796.18176"
   id="svg2"
   inkscape:version="0.91 r13725"
   sodipodi:docname="caseplans-4.svg"
   inkscape:export-filename="/Users/dlk/Downloads/test.png"
   inkscape:export-xdpi="118"
   inkscape:export-ydpi="118">
  <metadata
     id="metadata32">
    <rdf:RDF>
      <cc:Work
         rdf:about="">
        <dc:format>image/svg+xml</dc:format>
        <dc:type
           rdf:resource="http://purl.org/dc/dcmitype/StillImage" />
        <dc:title></dc:title>
      </cc:Work>
    </rdf:RDF>
  </metadata>
  <defs
     id="defs30" />
  <sodipodi:namedview
     pagecolor="#ffffff"
     bordercolor="#666666"
     borderopacity="1"
     objecttolerance="10"
     gridtolerance="10"
     guidetolerance="10"
     inkscape:pageopacity="0"
     inkscape:pageshadow="2"
     inkscape:window-width="1697"
     inkscape:window-height="1024"
     id="namedview28"
     showgrid="false"
     inkscape:zoom="1.05"
     inkscape:cx="542.5831"
     inkscape:cy="471.84193"
     inkscape:window-x="147"
     inkscape:window-y="13"
     inkscape:window-maximized="0"
     inkscape:current-layer="layer2"
     showguides="false"
     inkscape:document-units="mm" />
  <!-- Front-->
  <!-- Back-->
  <!-- Left-->
  <!-- Right-->
  <!-- Top-->
  <!-- Bottom-->
  <g
     inkscape:groupmode="layer"
     id="layer1"
     inkscape:label="Engrave"
     style="display:inline">
    <text
       xml:space="preserve"
       style="font-style:normal;font-variant:normal;font-weight:normal;font-stretch:normal;font-size:40.00003433px;line-height:125%;font-family:'Bank Gothic';-inkscape-font-specification:'Bank Gothic, Normal';text-align:start;letter-spacing:0px;word-spacing:0px;writing-mode:lr-tb;text-anchor:start;fill:#ff00ff;fill-opacity:1;stroke:none;stroke-width:1px;stroke-linecap:butt;stroke-linejoin:miter;stroke-opacity:1"
       x="1541.9999"
       y="134.50673"
       id="text4181"
       sodipodi:linespacing="125%"><tspan
         sodipodi:role="line"
         id="tspan4183"
         x="1541.9999"
         y="134.50673">5V DC</tspan></text>
    <text
       xml:space="preserve"
       style="font-style:normal;font-variant:normal;font-weight:normal;font-stretch:normal;font-size:20.00001717px;line-height:125%;font-family:'Bank Gothic';-inkscape-font-specification:'Bank Gothic, Normal';text-align:start;letter-spacing:0px;word-spacing:0px;writing-mode:lr-tb;text-anchor:start;display:inline;fill:#ff00ff;fill-opacity:1;stroke:none;stroke-width:1px;stroke-linecap:butt;stroke-linejoin:miter;stroke-opacity:1"
       x="109.60968"
       y="195.90538"
       id="text4218"
       sodipodi:linespacing="125%"><tspan
         sodipodi:role="line"
         id="tspan4220"
         x="109.60968"
         y="195.90538">ON</tspan></text>
    <text
       xml:space="preserve"
       style="font-style:normal;font-variant:normal;font-weight:normal;font-stretch:normal;font-size:20.00001717px;line-height:125%;font-family:'Bank Gothic';-inkscape-font-specification:'Bank Gothic, Normal';text-align:start;letter-spacing:0px;word-spacing:0px;writing-mode:lr-tb;text-anchor:start;display:inline;fill:#ff00ff;fill-opacity:1;stroke:none;stroke-width:1px;stroke-linecap:butt;stroke-linejoin:miter;stroke-opacity:1"
       x="105.19562"
       y="284.99365"
       id="text4222"
       sodipodi:linespacing="125%"><tspan
         sodipodi:role="line"
         id="tspan4224"
         x="105.19562"
         y="284.99365">OFF</tspan></text>
    <text
       xml:space="preserve"
       style="font-style:normal;font-variant:normal;font-weight:normal;font-stretch:normal;font-size:20.00001717px;line-height:125%;font-family:'Bank Gothic';-inkscape-font-specification:'Bank Gothic, Normal';text-align:start;letter-spacing:0px;word-spacing:0px;writing-mode:lr-tb;text-anchor:start;display:inline;fill:#ff00ff;fill-opacity:1;stroke:none;stroke-width:1px;stroke-linecap:butt;stroke-linejoin:miter;stroke-opacity:1"
       x="206.91208"
       y="285.33557"
       id="text4226"
       sodipodi:linespacing="125%"><tspan
         sodipodi:role="line"
         id="tspan4228"
         x="206.91208"
         y="285.33557">SLOW</tspan></text>
    <text
       xml:space="preserve"
       style="font-style:normal;font-variant:normal;font-weight:normal;font-stretch:normal;font-size:20.00001717px;line-height:125%;font-family:'Bank Gothic';-inkscape-font-specification:'Bank Gothic, Normal';text-align:start;letter-spacing:0px;word-spacing:0px;writing-mode:lr-tb;text-anchor:start;display:inline;fill:#ff00ff;fill-opacity:1;stroke:none;stroke-width:1px;stroke-linecap:butt;stroke-linejoin:miter;stroke-opacity:1"
       x="287.77975"
       y="285.33557"
       id="text4230"
       sodipodi:linespacing="125%"><tspan
         sodipodi:role="line"
         id="tspan4232"
         x="287.77975"
         y="285.33557">FAST</tspan></text>
    <text
       xml:space="preserve"
       style="font-style:normal;font-variant:normal;font-weight:normal;font-stretch:normal;font-size:20.00001717px;line-height:125%;font-family:'Bank Gothic';-inkscape-font-specification:'Bank Gothic, Normal';text-align:start;letter-spacing:0px;word-spacing:0px;writing-mode:lr-tb;text-anchor:start;display:inline;fill:#ff00ff;fill-opacity:1;stroke:none;stroke-width:1px;stroke-linecap:butt;stroke-linejoin:miter;stroke-opacity:1"
       x="376.10202"
       y="283.33557"
       id="text4234"
       sodipodi:linespacing="125%"><tspan
         sodipodi:role="line"
         id="tspan4236"
         x="376.10202"
         y="283.33557">SOFT</tspan></text>
    <text
       xml:space="preserve"
       style="font-style:normal;font-variant:normal;font-weight:normal;font-stretch:normal;font-size:20.00001717px;line-height:125%;font-family:'Bank Gothic';-inkscape-font-specification:'Bank Gothic, Normal';text-align:start;letter-spacing:0px;word-spacing:0px;writing-mode:lr-tb;text-anchor:start;display:inline;fill:#ff00ff;fill-opacity:1;stroke:none;stroke-width:1px;stroke-linecap:butt;stroke-linejoin:miter;stroke-opacity:1"
       x="450.84665"
       y="283.33557"
       id="text4238"
       sodipodi:linespacing="125%"><tspan
         sodipodi:role="line"
         id="tspan4240"
         x="450.84665"
         y="283.33557">LOUD</tspan></text>
    <text
       xml:space="preserve"
       style="font-style:normal;font-variant:normal;font-weight:normal;font-stretch:normal;font-size:20.00001717px;line-height:125%;font-family:'Bank Gothic';-inkscape-font-specification:'Bank Gothic, Normal';text-align:start;letter-spacing:0px;word-spacing:0px;writing-mode:lr-tb;text-anchor:start;display:inline;fill:#ff00ff;fill-opacity:1;stroke:none;stroke-width:1px;stroke-linecap:butt;stroke-linejoin:miter;stroke-opacity:1"
       x="587.17627"
       y="193.91179"
       id="text4244"
       sodipodi:linespacing="125%"><tspan
         sodipodi:role="line"
         id="tspan4246"
         x="587.17627"
         y="193.91179">MODE</tspan></text>
    <text
       xml:space="preserve"
       style="font-style:normal;font-variant:normal;font-weight:normal;font-stretch:normal;font-size:20.00001717px;line-height:125%;font-family:'Bank Gothic';-inkscape-font-specification:'Bank Gothic, Normal';text-align:start;letter-spacing:0px;word-spacing:0px;writing-mode:lr-tb;text-anchor:start;display:inline;fill:#ff00ff;fill-opacity:1;stroke:none;stroke-width:1px;stroke-linecap:butt;stroke-linejoin:miter;stroke-opacity:1"
       x="581.91833"
       y="347.43671"
       id="text4248"
       sodipodi:linespacing="125%"><tspan
         sodipodi:role="line"
         id="tspan4250"
         x="581.91833"
         y="347.43671" /></text>
    <text
       xml:space="preserve"
       style="font-style:normal;font-variant:normal;font-weight:normal;font-stretch:normal;font-size:60.00005341px;line-height:125%;font-family:'Bank Gothic';-inkscape-font-specification:'Bank Gothic, Normal';text-align:start;letter-spacing:0px;word-spacing:0px;writing-mode:lr-tb;text-anchor:start;display:inline;fill:#ff00ff;fill-opacity:1;stroke:#ff00ff;stroke-width:1px;stroke-linecap:butt;stroke-linejoin:miter;stroke-opacity:1"
       x="125.54691"
       y="104.7363"
       id="text4288"
       sodipodi:linespacing="125%"><tspan
         sodipodi:role="line"
         id="tspan4290"
         x="125.54691"
         y="104.7363">PULSE-O-MATIC</tspan></text>
  </g>
  <g
     inkscape:groupmode="layer"
     id="layer2"
     inkscape:label="Cut"
     style="display:inline">
    <g
       transform="translate(724.0754,22.500019)"
       id="g8"
       style="stroke:#ff0000;stroke-opacity:1">
      <polygon
         style="fill:none;stroke:#ff0000;stroke-width:0.90000075;stroke-opacity:1"
         points="189.56708,10.62993 235.63011,10.62993 235.63011,0 281.69314,0 281.69314,10.62993 327.75617,10.62993 327.75617,0 373.81921,0 373.81921,10.62993 419.88223,10.62993 419.88223,0 465.94526,0 465.94526,10.62993 512.00829,10.62993 512.00829,0 558.07133,0 558.07133,10.62993 629.82335,10.62993 629.82335,0 701.57538,0 701.57538,59.350442 690.94545,59.350442 690.94545,118.70088 701.57538,118.70088 701.57538,164.76391 690.94545,164.76391 690.94545,210.82694 701.57538,210.82694 701.57538,256.88997 690.94545,256.88997 690.94545,316.24042 701.57538,316.24042 701.57538,375.59086 629.82335,375.59086 629.82335,364.96093 558.07133,364.96093 558.07133,375.59086 512.00829,375.59086 512.00829,364.96093 465.94526,364.96093 465.94526,375.59086 419.88223,375.59086 419.88223,364.96093 373.81921,364.96093 373.81921,375.59086 327.75617,375.59086 327.75617,364.96093 281.69314,364.96093 281.69314,375.59086 235.63011,375.59086 235.63011,364.96093 189.56708,364.96093 189.56708,375.59086 143.50405,375.59086 143.50405,364.96093 71.752027,364.96093 71.752027,375.59086 0,375.59086 0,316.24042 10.62993,316.24042 10.62993,256.88997 0,256.88997 0,210.82694 10.62993,210.82694 10.62993,164.76391 0,164.76391 0,118.70088 10.62993,118.70088 10.62993,59.350442 0,59.350442 0,0 71.752027,0 71.752027,10.62993 143.50405,10.62993 143.50405,0 189.56708,0 "
         id="polygon10" />
    </g>
    <g
       transform="translate(1425.6508,22.500019)"
       id="g12"
       style="stroke:#ff0000;stroke-opacity:1">
      <polygon
         style="fill:none;stroke:#ff0000;stroke-width:0.90000075;stroke-opacity:1"
         points="0,164.76391 10.62993,164.76391 10.62993,118.70088 0,118.70088 0,59.350442 10.62993,59.350442 10.62993,0 77.95282,0 77.95282,10.62993 155.90564,10.62993 155.90564,0 201.96867,0 201.96867,10.62993 279.92149,10.62993 279.92149,0 347.24438,0 347.24438,59.350442 357.87431,59.350442 357.87431,118.70088 347.24438,118.70088 347.24438,164.76391 357.87431,164.76391 357.87431,210.82694 347.24438,210.82694 347.24438,256.88997 357.87431,256.88997 357.87431,316.24042 347.24438,316.24042 347.24438,375.59086 279.92149,375.59086 279.92149,364.96093 201.96867,364.96093 201.96867,375.59086 155.90564,375.59086 155.90564,364.96093 77.95282,364.96093 77.95282,375.59086 10.62993,375.59086 10.62993,316.24042 0,316.24042 0,256.88997 10.62993,256.88997 10.62993,210.82694 0,210.82694 "
         id="polygon14" />
    </g>
    <g
       transform="translate(1425.6508,398.09088)"
       id="g16"
       style="stroke:#ff0000;stroke-opacity:1">
      <polygon
         style="fill:none;stroke:#ff0000;stroke-width:0.90000075;stroke-opacity:1"
         points="0,164.76391 10.62993,164.76391 10.62993,118.70088 0,118.70088 0,59.350442 10.62993,59.350442 10.62993,0 77.95282,0 77.95282,10.62993 155.90564,10.62993 155.90564,0 201.96867,0 201.96867,10.62993 279.92149,10.62993 279.92149,0 347.24438,0 347.24438,59.350442 357.87431,59.350442 357.87431,118.70088 347.24438,118.70088 347.24438,164.76391 357.87431,164.76391 357.87431,210.82694 347.24438,210.82694 347.24438,256.88997 357.87431,256.88997 357.87431,316.24042 347.24438,316.24042 347.24438,375.59086 279.92149,375.59086 279.92149,364.96093 201.96867,364.96093 201.96867,375.59086 155.90564,375.59086 155.90564,364.96093 77.95282,364.96093 77.95282,375.59086 10.62993,375.59086 10.62993,316.24042 0,316.24042 0,256.88997 10.62993,256.88997 10.62993,210.82694 0,210.82694 "
         id="polygon18" />
    </g>
    <g
       transform="translate(22.500018,398.09088)"
       id="g20"
       style="stroke:#ff0000;stroke-opacity:1">
      <polygon
         style="fill:none;stroke:#ff0000;stroke-width:0.90000075;stroke-opacity:1"
         points="373.81921,0 419.88223,0 419.88223,10.62993 465.94526,10.62993 465.94526,0 512.00829,0 512.00829,10.62993 558.07133,10.62993 558.07133,0 629.82335,0 629.82335,10.62993 690.94545,10.62993 690.94545,77.95282 701.57538,77.95282 701.57538,155.90564 690.94545,155.90564 690.94545,201.96867 701.57538,201.96867 701.57538,279.92149 690.94545,279.92149 690.94545,347.24438 629.82335,347.24438 629.82335,357.87431 558.07133,357.87431 558.07133,347.24438 512.00829,347.24438 512.00829,357.87431 465.94526,357.87431 465.94526,347.24438 419.88223,347.24438 419.88223,357.87431 373.81921,357.87431 373.81921,347.24438 327.75617,347.24438 327.75617,357.87431 281.69314,357.87431 281.69314,347.24438 235.63011,347.24438 235.63011,357.87431 189.56708,357.87431 189.56708,347.24438 143.50405,347.24438 143.50405,357.87431 71.752027,357.87431 71.752027,347.24438 10.62993,347.24438 10.62993,279.92149 0,279.92149 0,201.96867 10.62993,201.96867 10.62993,155.90564 0,155.90564 0,77.95282 10.62993,77.95282 10.62993,10.62993 71.752027,10.62993 71.752027,0 143.50405,0 143.50405,10.62993 189.56708,10.62993 189.56708,0 235.63011,0 235.63011,10.62993 281.69314,10.62993 281.69314,0 327.75617,0 327.75617,10.62993 373.81921,10.62993 "
         id="polygon22" />
    </g>
    <g
       transform="translate(724.0754,398.09088)"
       id="g24"
       style="stroke:#ff0000;stroke-opacity:1">
      <polygon
         style="fill:none;stroke:#ff0000;stroke-width:0.90000075;stroke-opacity:1"
         points="373.81921,0 419.88223,0 419.88223,10.62993 465.94526,10.62993 465.94526,0 512.00829,0 512.00829,10.62993 558.07133,10.62993 558.07133,0 629.82335,0 629.82335,10.62993 690.94545,10.62993 690.94545,77.95282 701.57538,77.95282 701.57538,155.90564 690.94545,155.90564 690.94545,201.96867 701.57538,201.96867 701.57538,279.92149 690.94545,279.92149 690.94545,347.24438 629.82335,347.24438 629.82335,357.87431 558.07133,357.87431 558.07133,347.24438 512.00829,347.24438 512.00829,357.87431 465.94526,357.87431 465.94526,347.24438 419.88223,347.24438 419.88223,357.87431 373.81921,357.87431 373.81921,347.24438 327.75617,347.24438 327.75617,357.87431 281.69314,357.87431 281.69314,347.24438 235.63011,347.24438 235.63011,357.87431 189.56708,357.87431 189.56708,347.24438 143.50405,347.24438 143.50405,357.87431 71.752027,357.87431 71.752027,347.24438 10.62993,347.24438 10.62993,279.92149 0,279.92149 0,201.96867 10.62993,201.96867 10.62993,155.90564 0,155.90564 0,77.95282 10.62993,77.95282 10.62993,10.62993 71.752027,10.62993 71.752027,0 143.50405,0 143.50405,10.62993 189.56708,10.62993 189.56708,0 235.63011,0 235.63011,10.62993 281.69314,10.62993 281.69314,0 327.75617,0 327.75617,10.62993 373.81921,10.62993 "
         id="polygon26" />
    </g>
    <ellipse
       style="fill:none;fill-opacity:1;stroke:#ff0000;stroke-width:3.67023253;stroke-miterlimit:100;stroke-dasharray:none;stroke-opacity:1"
       id="path4179"
       cx="1606.3596"
       cy="233.49268"
       rx="22.082228"
       ry="22.082232" />
    <ellipse
       style="fill:none;fill-opacity:1;stroke:#ff0000;stroke-width:2.1259861;stroke-miterlimit:100;stroke-dasharray:none;stroke-opacity:1"
       id="path4252"
       cx="478.12436"
       cy="480.58508"
       rx="4.7381659"
       ry="4.7381654" />
    <ellipse
       style="fill:none;fill-opacity:1;stroke:#ff0000;stroke-width:2.12426305;stroke-miterlimit:100;stroke-dasharray:none;stroke-opacity:1"
       id="path4267"
       cx="212.59856"
       cy="480.71698"
       rx="4.6071649"
       ry="4.6071644" />
    <ellipse
       style="fill:none;fill-opacity:1;stroke:#ff0000;stroke-width:2.1259861;stroke-miterlimit:100;stroke-dasharray:none;stroke-opacity:1"
       id="path4269"
       cx="208.18062"
       cy="651.52875"
       rx="4.7946734"
       ry="4.794673" />
    <ellipse
       style="fill:none;fill-opacity:1;stroke:#ff0000;stroke-width:2.1259861;stroke-miterlimit:100;stroke-dasharray:none;stroke-opacity:1"
       id="path4271"
       cx="500.33655"
       cy="651.97937"
       rx="4.3440504"
       ry="4.3440499" />
    <ellipse
       style="fill:none;fill-opacity:1;stroke:#ff0000;stroke-width:2.1259861;stroke-miterlimit:100;stroke-dasharray:none;stroke-opacity:1"
       id="path4282"
       cx="392.51483"
       cy="633.80096"
       rx="4.5224061"
       ry="4.5224056" />
    <g
       transform="translate(22.500018,22.500019)"
       id="g4"
       style="display:inline;stroke:#ff0000;stroke-opacity:1">
      <polygon
         style="fill:none;stroke:#ff0000;stroke-width:0.90000075;stroke-opacity:1"
         points="701.57538,164.76391 690.94545,164.76391 690.94545,210.82694 701.57538,210.82694 701.57538,256.88997 690.94545,256.88997 690.94545,316.24042 701.57538,316.24042 701.57538,375.59086 629.82335,375.59086 629.82335,364.96093 558.07133,364.96093 558.07133,375.59086 512.00829,375.59086 512.00829,364.96093 465.94526,364.96093 465.94526,375.59086 419.88223,375.59086 419.88223,364.96093 373.81921,364.96093 373.81921,375.59086 327.75617,375.59086 327.75617,364.96093 281.69314,364.96093 281.69314,375.59086 235.63011,375.59086 235.63011,364.96093 189.56708,364.96093 189.56708,375.59086 143.50405,375.59086 143.50405,364.96093 71.752027,364.96093 71.752027,375.59086 0,375.59086 0,316.24042 10.62993,316.24042 10.62993,256.88997 0,256.88997 0,210.82694 10.62993,210.82694 10.62993,164.76391 0,164.76391 0,118.70088 10.62993,118.70088 10.62993,59.350442 0,59.350442 0,0 71.752027,0 71.752027,10.62993 143.50405,10.62993 143.50405,0 189.56708,0 189.56708,10.62993 235.63011,10.62993 235.63011,0 281.69314,0 281.69314,10.62993 327.75617,10.62993 327.75617,0 373.81921,0 373.81921,10.62993 419.88223,10.62993 419.88223,0 465.94526,0 465.94526,10.62993 512.00829,10.62993 512.00829,0 558.07133,0 558.07133,10.62993 629.82335,10.62993 629.82335,0 701.57538,0 701.57538,59.350442 690.94545,59.350442 690.94545,118.70088 701.57538,118.70088 "
         id="polygon6" />
    </g>
    <ellipse
       style="display:inline;fill:none;fill-opacity:1;stroke:#ff0000;stroke-width:3.3637948;stroke-miterlimit:100;stroke-dasharray:none;stroke-opacity:1"
       id="path4185"
       cx="126.31299"
       cy="-237.65854"
       rx="21.349619"
       ry="21.349617"
       transform="scale(1,-1)" />
    <ellipse
       style="display:inline;fill:none;fill-opacity:1;stroke:#ff0000;stroke-width:3.57085633;stroke-miterlimit:100;stroke-dasharray:none;stroke-opacity:1"
       id="path4242"
       cx="185.32199"
       cy="212.23474"
       rx="10.616158"
       ry="10.616157" />
    <ellipse
       style="display:inline;fill:none;fill-opacity:1;stroke:#ff0000;stroke-width:1.9063009;stroke-miterlimit:100;stroke-dasharray:none;stroke-opacity:1"
       id="path4241"
       cx="278.2269"
       cy="237.65854"
       rx="12.333426"
       ry="12.333425" />
    <ellipse
       style="display:inline;fill:none;fill-opacity:1;stroke:#ff0000;stroke-width:1.88366067;stroke-miterlimit:100;stroke-dasharray:none;stroke-opacity:1"
       id="path4263"
       cx="441.29379"
       cy="237.65854"
       rx="12.345583"
       ry="12.345582" />
    <circle
       style="display:inline;fill:none;fill-opacity:1;stroke:#ff0000;stroke-width:3.24139237;stroke-miterlimit:100;stroke-dasharray:none;stroke-opacity:1"
       id="path4265"
       cx="619.78778"
       cy="237.65854"
       r="21.41082" />
    <circle
       style="fill:none;fill-opacity:1;stroke:#ff0000;stroke-width:2.1259861;stroke-miterlimit:100;stroke-dasharray:none;stroke-opacity:1"
       id="path4178"
       cx="392.69257"
       cy="534.87506"
       r="4.7001581" />
    <ellipse
       style="fill:none;fill-opacity:1;stroke:#ff0000;stroke-width:2.02674723;stroke-miterlimit:100;stroke-dasharray:none;stroke-opacity:1"
       id="path4180"
       cx="250.58284"
       cy="237.65854"
       rx="4.3015919"
       ry="4.3015914" />
    <circle
       style="fill:none;fill-opacity:1;stroke:#ff0000;stroke-width:2.07294154;stroke-miterlimit:100;stroke-dasharray:none;stroke-opacity:1"
       id="path4182"
       cx="413.64597"
       cy="237.65854"
       r="4.2784948" />
    <circle
       style="fill:none;fill-opacity:1;stroke:#ff0000;stroke-width:1.94900572;stroke-miterlimit:100;stroke-dasharray:none;stroke-opacity:1"
       id="path4186"
       cx="1463.6827"
       cy="138.35193"
       r="4.6947932" />
    <circle
       r="4.6947932"
       cy="138.35193"
       cx="1744.1561"
       id="circle4190"
       style="fill:none;fill-opacity:1;stroke:#ff0000;stroke-width:1.94900572;stroke-miterlimit:100;stroke-dasharray:none;stroke-opacity:1" />
    <g
       id="g4194"
       transform="matrix(0,1,-1,0,1986.7626,-1401.9931)">
      <rect
         y="117.83341"
         x="1436.6326"
         height="69.102402"
         width="336.44275"
         id="rect4184"
         style="fill:none;fill-opacity:1;stroke:#ff0000;stroke-width:0.98928678;stroke-miterlimit:100;stroke-dasharray:none;stroke-opacity:1" />
      <circle
         style="fill:none;fill-opacity:1;stroke:#ff0000;stroke-width:1.94900572;stroke-miterlimit:100;stroke-dasharray:none;stroke-opacity:1"
         id="circle4188"
         cx="1463.6827"
         cy="138.35193"
         r="4.6947932" />
      <circle
         r="4.6947932"
         cy="138.35193"
         cx="1744.1561"
         id="circle4192"
         style="fill:none;fill-opacity:1;stroke:#ff0000;stroke-width:1.94900572;stroke-miterlimit:100;stroke-dasharray:none;stroke-opacity:1" />
    </g>
    <circle
       style="fill:none;fill-opacity:1;stroke:#ff0000;stroke-width:1.94900572;stroke-miterlimit:100;stroke-dasharray:none;stroke-opacity:1"
       id="circle4203"
       cx="1463.6827"
       cy="514.05011"
       r="4.6947932" />
    <circle
       r="4.6947932"
       cy="514.05011"
       cx="1744.1561"
       id="circle4205"
       style="fill:none;fill-opacity:1;stroke:#ff0000;stroke-width:1.94900572;stroke-miterlimit:100;stroke-dasharray:none;stroke-opacity:1" />
    <g
       id="g4214"
       transform="matrix(0,1,-1,0,2360.556,-1017.7234)">
      <rect
         style="fill:none;fill-opacity:1;stroke:#ff0000;stroke-width:0.98928678;stroke-miterlimit:100;stroke-dasharray:none;stroke-opacity:1"
         id="rect4201"
         width="336.44275"
         height="69.102402"
         x="1436.6326"
         y="493.53162" />
      <circle
         style="fill:none;fill-opacity:1;stroke:#ff0000;stroke-width:1.94900572;stroke-miterlimit:100;stroke-dasharray:none;stroke-opacity:1"
         id="circle4210"
         cx="1463.6827"
         cy="514.05011"
         r="4.6947932" />
      <circle
         r="4.6947932"
         cy="514.05011"
         cx="1744.1561"
         id="circle4212"
         style="fill:none;fill-opacity:1;stroke:#ff0000;stroke-width:1.94900572;stroke-miterlimit:100;stroke-dasharray:none;stroke-opacity:1" />
    </g>
    <circle
       r="4.2784948"
       cy="237.65854"
       cx="468.92154"
       id="circle4257"
       style="fill:none;fill-opacity:1;stroke:#ff0000;stroke-width:2.07294154;stroke-miterlimit:100;stroke-dasharray:none;stroke-opacity:1" />
    <ellipse
       ry="4.3015914"
       rx="4.3015919"
       cy="237.65854"
       cx="305.8584"
       id="ellipse4259"
       style="fill:none;fill-opacity:1;stroke:#ff0000;stroke-width:2.02674723;stroke-miterlimit:100;stroke-dasharray:none;stroke-opacity:1" />
  </g>
</svg>
